# xmcd CD database file
#
# Track frame offsets:
#	150
#	20746
#	47239
#	65878
#	81452
#	94335
#	110923
#	132170
#	173216
#	203033
#	222817
#	240863
#	263266
#	292182
#	314601
#
# Disc length: 4448 seconds
#
# Revision: 1
# Processed by: cddbd v1.5.2PL0 Copyright (c) Steve Scherf et al.
# Submitted via: CDex 1.51
#
DISCID=e6115e0f
DTITLE=Albert King - The Feeling
DYEAR=2004
DGENRE=Blues
TTITLE0=Truckload of Loving
TTITLE1=Angel of Mercy
TTITLE2=Cold Women with Warm Hearts
TTITLE3=Born Under A Bad Sign
TTITLE4=Flat Tire
TTITLE5=Get Out of My Life Woman
TTITLE6=Good Time Charlie
TTITLE7=I Got the Blues
TTITLE8=I'll Play the Blues for You ..
TTITLE9=Cadillac Assembly Line
TTITLE10=Love Shock
TTITLE11=Nobody Wants A Loser
TTITLE12=I Worked Hard
TTITLE13=The Feeling
TTITLE14=You Upset Me Baby
EXTD=YEAR: 2004
EXTT0=
EXTT1=
EXTT2=
EXTT3=
EXTT4=
EXTT5=
EXTT6=
EXTT7=
EXTT8=
EXTT9=
EXTT10=
EXTT11=
EXTT12=
EXTT13=
EXTT14=
PLAYORDER=
